# xmcd
#
# Track frame offsets:
#	150
#	13413
#	25523
#	41450
#	52238
#	67380
#	86178
#	98740
#	112198
#	125060
#	146570
#	163215
#	174095
#	188838
#	207793
#	225723
#	247350
#	256893
#
# Disc length: 3729 seconds
#
# Revision: 0
# Processed by: cddbd v1.4PL0 Copyright (c) Steve Scherf et al.
# Submitted via: EasyCDDAExtractor 4.6.9.1
#
DISCID=0f0e8f12
DTITLE=Charly Mc Coy - Live in Paris
DYEAR=1992
DGENRE=Country
TTITLE0=Scotland
TTITLE1=I'm So Lonesome I Could Cry
TTITLE2=One O'Clock Jump
TTITLE3=Cold Cold Heart
TTITLE4=Lark In The Morning
TTITLE5=I Heard It Through The Grapevine
TTITLE6=John Henry
TTITLE7=You Don't Know Me
TTITLE8=Wabash Canonball
TTITLE9=Georgia On My Mind
TTITLE10=Whiskey Before Breakfast
TTITLE11=Boogie Woogie
TTITLE12=Barefootin'
TTITLE13=The Funky Duck
TTITLE14=For Jim
TTITLE15=Stand By Me
TTITLE16=Shenandoha
TTITLE17=Orange Blossom Special and Final
EXTD=
EXTT0=
EXTT1=
EXTT2=
EXTT3=
EXTT4=
EXTT5=
EXTT6=
EXTT7=
EXTT8=
EXTT9=
EXTT10=
EXTT11=
EXTT12=
EXTT13=
EXTT14=
EXTT15=
EXTT16=
EXTT17=
PLAYORDER=
